<?xml version="1.0" encoding="utf-8"?>
<svg width="480" height="360" version="1.1" xmlns="http://www.w3.org/2000/svg">
  <style type="text/css">
.st0{
  /*fill:#000;*/
  /*stroke:#000;*/
  stroke-dasharray: 2000;
  stroke-dashoffset: 0;
  stroke-width: 1;
  -webkit-animation: hello 4s ease-in 0s;
  animation: hello 4s ease-in 0s;
}

  @-webkit-keyframes hello {
      0% {
        stroke-dashoffset: 2000;
        fill:transparent;
      }
      40% {
        stroke-dashoffset: 2000;
        fill:transparent;
      }
      50% {
        fill:transparent;
      }
      100% {
        stroke-dashoffset: 0;
        /*fill:#000;*/
      }
    }

.st1{
  /*fill:#2572a7;*/
  /*stroke:#2572a7;*/
  stroke-dasharray: 2000;
  stroke-dashoffset: 0;
  stroke-width: 1;
  -webkit-animation: hello1 4s ease-in 0s;
  animation: hello1 4s ease-in 0s;
}

  @-webkit-keyframes hello1 {
      0% {
        stroke-dashoffset: 2000;
        fill:transparent;
      }
      40% {
        stroke-dashoffset: 2000;
        fill:transparent;
      }
      50% {
        fill:transparent;
      }
      100% {
        stroke-dashoffset: 0;
        /*fill:#2572a7;*/
      }
    }
</style>
  <g stroke="none" fill="none" fill-rule="evenadd">
    <title>Butterfly</title>
    <g id="head">
      <path class="st0" d="M232.5,144.5c0,-12 0,-24 0,-36c-1.333,0 -2.667,0 -4,0c-2.645,-2.717 -2.645,-5.55 0,-8.5c3.383,-1.0587 5.55,0.108 6.5,3.5c0.667,13.667 0.667,27.333 0,41c-0.977,1.274 -1.811,1.274 -2.5,0 Zm-3,-41c1.837,0.139 2.17,0.806 1,2c-0.798,-0.457 -1.131,-1.124 -1,-2 Z" stroke="#77d2b8" fill="#77d2b8"/>
      <path class="st0" style="opacity:0.271" d="M 228.5 108.5 C 229.833 108.5 231.167 108.5 232.5 108.5 C 232.5 120.5 232.5 132.5 232.5 144.5 C 231.505 133.012 231.172 121.345 231.5 109.5 C 230.209 109.737 229.209 109.404 228.5 108.5 Z" stroke="#77d2b8" fill="#77d2b8"/>
      <path class="st0" d="M 252.5 104.5 C 252.66 106.355 251.993 107.688 250.5 108.5 C 249.167 108.5 247.833 108.5 246.5 108.5 C 246.5 120.5 246.5 132.5 246.5 144.5 C 245.811 145.774 244.977 145.774 244 144.5 C 243.333 130.833 243.333 117.167 244 103.5 C 245.147 99.857 247.314 98.857 250.5 100.5 C 251.993 101.312 252.66 102.645 252.5 104.5 Z M 247.5 105.5 C 248.833 105.5 249.5 104.833 249.5 103.5 C 248.167 103.5 247.5 104.167 247.5 105.5 Z" stroke="#77d2b8" fill="#77d2b8"/>
      <path class="st0" style="opacity:0.267" d="M250.5,108.5c-0.709,0.904 -1.709,1.237 -3,1c0.328,11.845 -0.005,23.512 -1,35c0,-12 0,-24 0,-36c1.333,0 2.667,0 4,0 Z" stroke="#77d2b8" fill="#77d2b8"/>
    </g>
    <g id="right_wing">
      <path class="st0" d="M 266 142.5 C 265.632 143.91 264.799 144.91 263.5 145.5 C 262.369 143.926 262.202 142.259 263 140.5 C 266.174 129.798 270.008 119.464 274.5 109.5 C 282.906 86.685 293.906 65.352 307.5 45.5 C 314.652 31.352 324.652 19.685 337.5 10.5 C 338.29 9.206 339.29 8.039 340.5 7 C 345.147 4.506 349.814 2.339 354.5 0.5 C 358.5 0.5 362.5 0.5 366.5 0.5 C 378.566 8.566 386.233 19.899 389.5 34.5 C 399.06 61.941 401.727 90.108 397.5 119 C 399.4 124.867 401.4 130.7 403.5 136.5 C 413.543 158.715 415.209 181.382 408.5 204.5 C 405.506 213.653 400.172 221.153 392.5 227 C 391.552 227.483 390.552 227.649 389.5 227.5 C 389.351 226.448 389.517 225.448 390 224.5 C 396.909 219.102 402.076 212.435 405.5 204.5 C 409.187 193.458 410.354 182.125 409 170.5 C 407.706 159.528 405.206 148.861 401.5 138.5 C 398.104 132.485 395.77 125.985 394.5 119 C 398.001 91.007 395.667 63.507 387.5 36.5 C 384.496 29.02 380.996 21.687 377 14.5 C 374.5 10.667 371.333 7.5 367.5 5 C 360.635 3.041 353.969 3.707 347.5 7 C 344.014 8.996 340.681 11.163 337.5 13.5 C 325.954 24.699 315.954 37.032 307.5 50.5 C 295.826 70.182 285.493 90.515 276.5 111.5 C 272.909 121.773 269.409 132.106 266 142.5 Z" stroke="#77d2b8" fill="#77d2b8"/>
    </g>
    <g id="right_wing__mark1">
      <path class="st1" d="M 373.5 32.5 C 363.821 33.9 354.154 33.733 344.5 32 C 346.373 30.296 348.04 28.463 349.5 26.5 C 354.41 20.409 360.743 17.243 368.5 17 C 371.663 18.48 373.496 20.98 374 24.5 C 374.801 27.367 374.634 30.034 373.5 32.5 Z" fill="#51a59a"/>
      <path class="st1" style="opacity:0.786" d="M 349.5 26.5 C 348.04 28.463 346.373 30.296 344.5 32 C 354.154 33.733 363.821 33.9 373.5 32.5 C 373.25 34.674 372.25 36.341 370.5 37.5 C 367.15 37.335 363.817 37.502 360.5 38 C 369.766 39.143 369.766 39.976 360.5 40.5 C 353.566 39.336 346.566 38.336 339.5 37.5 C 340.381 36.03 341.714 35.196 343.5 35 C 342.829 34.014 342.829 32.847 343.5 31.5 C 344.911 29.086 346.911 27.419 349.5 26.5 Z" fill="#43887f"/>
      <path class="st1" style="opacity:0.645" d="M343.5,31.5c-0.671,1.3471 -0.671,2.5138 0,3.5c-1.786,0.1962 -3.119,1.0295 -4,2.5c7.066,0.8363 14.066,1.8363 21,3c9.266,-0.5241 9.266,-1.3574 0,-2.5c3.317,-0.4983 6.65,-0.665 10,-0.5c-0.238,1.9044 -1.238,3.2377 -3,4c-2.176,0.9484 -4.676,1.6151 -7.5,2c-7.58,-0.4916 -15.08,-1.4916 -22.5,-3c0.627,-0.9168 0.961,-1.9168 1,-3c0.919,-2.5892 2.586,-4.5892 5,-6 Z" fill="#377169"/>
      <path class="st1" style="opacity:0.503" d="M338.5,37.5c-0.039,1.0832 -0.373,2.0832 -1,3c7.42,1.5084 14.92,2.5084 22.5,3c2.824,-0.3849 5.324,-1.0516 7.5,-2c-1.591,2.1326 -3.591,3.7993 -6,5c-1.699,-0.1602 -3.366,0.0065 -5,0.5c2.563,0.763 2.563,1.263 0,1.5c-7.317,-0.9229 -14.65,-1.7562 -22,-2.5c0.667,-0.3333 1.333,-0.6667 2,-1c-0.752,-0.6708 -1.086,-1.5041 -1,-2.5c0.25,-2.174 1.25,-3.8406 3,-5 Z" fill="#2c5a54"/>
      <path class="st1" style="opacity:0.34" d="M 335.5 42.5 C 335.414 43.496 335.748 44.329 336.5 45 C 335.833 45.333 335.167 45.667 334.5 46 C 341.85 46.744 349.183 47.577 356.5 48.5 C 359.063 48.263 359.063 47.763 356.5 47 C 358.134 46.507 359.801 46.34 361.5 46.5 C 360.109 48.89 358.109 50.557 355.5 51.5 C 347.858 52.394 340.191 52.394 332.5 51.5 C 332.5 50.5 332.5 49.5 332.5 48.5 C 332.992 46.182 333.992 44.182 335.5 42.5 Z" fill="#20413d"/>
      <path class="st1" style="opacity:0.248" d="M332.5,48.5c0,1 0,2 0,3c7.691,0.8943 15.358,0.8943 23,0c-0.762,1.7624 -2.096,2.7624 -4,3c-5.972,0.9739 -11.972,1.1406 -18,0.5c-1.473,-0.7096 -2.14,-1.8762 -2,-3.5c-0.237,-1.291 0.096,-2.291 1,-3 Z" fill="#162e2b"/>
      <path class="st1" style="opacity:0.197" d="M331.5,51.5c-0.14,1.6238 0.527,2.7904 2,3.5c6.028,0.6406 12.028,0.4739 18,-0.5c-5.247,6.1174 -11.913,8.6174 -20,7.5c-2.498,-3.5074 -2.498,-7.0074 0,-10.5 Z" fill="#0e1a18"/>
    </g>
    <g id="right_wing__mark2">
      <path class="st1" style="opacity:0.82" d="M 385.5 52 C 385.5 53.667 385.5 55.333 385.5 57 C 377.826 57.166 370.159 57 362.5 56.5 C 365.5 56.167 368.5 55.833 371.5 55.5 C 369.5 55.167 367.5 54.833 365.5 54.5 C 366.381 53.792 367.047 52.958 367.5 52 C 371.87 47.445 377.203 45.945 383.5 47.5 C 385.037 48.61 385.703 50.11 385.5 52 Z" fill="#489288"/>
      <path class="st1" style="opacity:0.711" d="M 367.5 52 C 367.047 52.958 366.381 53.792 365.5 54.5 C 367.5 54.833 369.5 55.167 371.5 55.5 C 368.5 55.833 365.5 56.167 362.5 56.5 C 370.159 57 377.826 57.166 385.5 57 C 385.5 58.333 385.5 59.667 385.5 61 C 376.515 60.334 367.515 60.001 358.5 60 C 358.5 59.667 358.5 59.333 358.5 59 C 360.949 55.944 363.949 53.611 367.5 52 Z" fill="#3b7870"/>
      <path class="st1" style="opacity:0.501" d="M 385.5 52 C 386.641 55.14 386.808 58.473 386 62 C 385.34 63.824 384.173 65.157 382.5 66 C 373.911 65.195 365.244 64.695 356.5 64.5 C 355.833 64.167 355.167 63.833 354.5 63.5 C 355.705 62.124 357.038 60.958 358.5 60 C 367.515 60.001 376.515 60.334 385.5 61 C 385.5 59.667 385.5 58.333 385.5 57 C 385.5 55.333 385.5 53.667 385.5 52 Z" fill="#2e5d57"/>
      <path class="st1" style="opacity:0.466" d="M358.5,59c0,0.3333 0,0.6667 0,1c-1.462,0.9577 -2.795,2.1244 -4,3.5c0.667,0.3333 1.333,0.6667 2,1c8.744,0.1954 17.411,0.6954 26,1.5c0,0.6667 -0.333,1 -1,1c-10.22,2.3441 -20.554,2.5107 -31,0.5c1,-0.3333 2,-0.6667 3,-1c-0.671,-0.9862 -0.671,-2.1529 0,-3.5c1.085,-2.0869 2.751,-3.4202 5,-4 Z" fill="#254c47"/>
      <path class="st1" style="opacity:0.262" d="M353.5,63c-0.671,1.3471 -0.671,2.5138 0,3.5c-1,0.3333 -2,0.6667 -3,1c10.446,2.0107 20.78,1.8441 31,-0.5c-2.661,3.0023 -5.995,5.0023 -10,6c-8.734,0.635 -17.067,-0.0316 -25,-2c1.617,-3.2843 3.95,-5.9509 7,-8 Z" fill="#19332f"/>
      <path class="st1" style="opacity:0.196" d="M 346.5 71 C 354.433 72.968 362.766 73.635 371.5 73 C 369.208 74.767 366.542 75.767 363.5 76 C 356.745 76.623 350.412 75.956 344.5 74 C 344.427 72.473 345.094 71.473 346.5 71 Z" fill="#10201e"/>
      <path class="st1" style="opacity:0.072" d="M344.5,74c5.912,1.9563 12.245,2.6229 19,2c-6.557,3.0496 -13.557,4.3829 -21,4c-0.241,-2.3984 0.426,-4.3984 2,-6 Z" fill="#050d0c"/>
    </g>
    <g id="right_wing__mark3">
      <path class="st1" d="M 382.5 86.5 C 378.486 86.665 374.486 86.499 370.5 86 C 369.058 85.623 368.058 84.79 367.5 83.5 C 371.701 80.748 376.368 79.914 381.5 81 C 382.406 82.699 382.739 84.533 382.5 86.5 Z" fill="#4d9c92"/>
      <path class="st1" style="opacity:0.678" d="M 367.5 83.5 C 368.058 84.79 369.058 85.623 370.5 86 C 374.486 86.499 378.486 86.665 382.5 86.5 C 382.5 87.167 382.5 87.833 382.5 88.5 C 375.492 88.666 368.492 88.5 361.5 88 C 360.944 87.617 360.611 87.117 360.5 86.5 C 362.426 84.707 364.759 83.707 367.5 83.5 Z" fill="#3d7d74"/>
      <path class="st1" style="opacity:0.572" d="M360.50002,86.49999c0.111,0.6174 0.444,1.1174 1,1.5c6.992,0.4996 13.992,0.6663 21,0.5c-0.333,0.6667 -0.667,1.3333 -1,2c-7.341,0.1663 -14.674,-0.0003 -22,-0.5c-2.119,-0.3418 -2.453,-1.1751 -1,-2.5c0.342,-0.8382 1.008,-1.1716 2,-1 Z" fill="#31655e"/>
      <path class="st1" style="opacity:0.323" d="M 358.5 87.5 C 357.047 88.825 357.381 89.658 359.5 90 C 366.826 90.5 374.159 90.666 381.5 90.5 C 380.089 92.539 378.089 93.539 375.5 93.5 C 368.804 93.609 362.137 93.276 355.5 92.5 C 355.5 91.5 355.5 90.5 355.5 89.5 C 355.973 88.094 356.973 87.427 358.5 87.5 Z" fill="#20413d"/>
      <path class="st1" style="opacity:0.248" d="M355.50002,89.49999c0,1 0,2 0,3c6.637,0.7757 13.304,1.109 20,1c-6.487,1.154 -13.154,1.3206 -20,0.5c-1.301,-1.6155 -1.301,-3.1155 0,-4.5 Z" fill="#132623"/>
    </g>
    <g id="left_wing">
      <path class="st0" d="M 211 141 C 211.798 142.759 211.631 144.426 210.5 146 C 209.201 145.41 208.368 144.41 208 143 C 205.06 134.347 202.227 125.68 199.5 117 C 193.753 102.831 187.419 88.831 180.5 75 C 174.584 65.506 168.918 55.839 163.5 46 C 155.615 35.106 146.949 24.773 137.5 15 C 130.671 8.549 122.504 4.882 113 4 C 110.747 4.131 108.581 4.631 106.5 5.5 C 102.667 8 99.5 11.167 97 15 C 93.004 22.187 89.504 29.52 86.5 37 C 78.358 63.845 76.025 91.179 79.5 119 C 78.329 126.184 75.996 132.85 72.5 139 C 68.923 149.049 66.423 159.382 65 170 C 64.123 180.085 64.623 190.085 66.5 200 C 69.851 210.022 75.684 218.355 84 225 C 84.483 225.948 84.65 226.948 84.5 228 C 80.159 227.069 76.659 224.736 74 221 C 70.08 215.827 67.247 210.16 65.5 204 C 64.074 202.352 63.24 200.352 63 198 C 59.073 176.9 61.573 156.567 70.5 137 C 75.722 123.805 77.055 110.139 74.5 96 C 74.127 74.926 77.46 54.593 84.5 35 C 87.767 20.399 95.434 9.066 107.5 1 C 111.5 1 115.5 1 119.5 1 C 127.608 3.553 134.608 7.887 140.5 14 C 145.457 17.123 149.624 21.123 153 26 C 158.263 32.206 162.763 38.873 166.5 46 C 168.47 48.147 170.303 50.48 172 53 C 175.78 59.562 179.28 66.229 182.5 73 C 190.367 86.251 196.7 100.251 201.5 115 C 205.129 123.376 208.296 132.043 211 141 Z" stroke="#77d2b8" fill="#77d2b8"/>
    </g>
    <g id="left_wing__mark1">
      <path class="st1" style="opacity:0.992" d="M115.5,17.5c-2.951,-0.2128 -5.618,0.4539 -8,2c2.115,-3.0172 4.782,-3.6839 8,-2 Z" fill="#346962"/>
      <path class="st1" d="M 115.5 17.5 C 121.241 19.236 126.241 22.236 130.5 26.5 C 130.414 27.496 130.748 28.329 131.5 29 C 129.833 29.333 128.167 29.667 126.5 30 C 128.833 30.333 131.167 30.667 133.5 31 C 124.155 31.517 114.822 31.35 105.5 30.5 C 105.5 28.5 105.5 26.5 105.5 24.5 C 105.402 22.447 106.069 20.78 107.5 19.5 C 109.882 17.954 112.549 17.287 115.5 17.5 Z" fill="#54aa9f"/>
      <path class="st1" style="opacity:0.82" d="M 105.5 24.5 C 105.5 26.5 105.5 28.5 105.5 30.5 C 114.822 31.35 124.155 31.517 133.5 31 C 131.167 30.667 128.833 30.333 126.5 30 C 128.167 29.667 129.833 29.333 131.5 29 C 130.748 28.329 130.414 27.496 130.5 26.5 C 133.903 28.9 136.57 31.9 138.5 35.5 C 138.414 36.496 138.748 37.329 139.5 38 C 128.398 37.764 117.398 36.597 106.5 34.5 C 105.028 32.883 104.361 30.883 104.5 28.5 C 104.511 26.955 104.844 25.622 105.5 24.5 Z" fill="#458d83"/>
      <path class="st1" style="opacity:0.606" d="M 106.5 34.5 C 117.398 36.597 128.398 37.764 139.5 38 C 138.748 37.329 138.414 36.496 138.5 35.5 C 140.262 36.262 141.262 37.596 141.5 39.5 C 141.586 40.496 141.252 41.329 140.5 42 C 129.568 43.007 118.901 41.84 108.5 38.5 C 107.4 37.395 106.733 36.062 106.5 34.5 Z" fill="#39746c"/>
      <path class="st1" style="opacity:0.534" d="M 108.5 38.5 C 118.901 41.84 129.568 43.007 140.5 42 C 141.252 41.329 141.586 40.496 141.5 39.5 C 143.25 40.659 144.25 42.326 144.5 44.5 C 142.952 45.794 140.952 46.461 138.5 46.5 C 132.831 46.03 127.164 45.53 121.5 45 C 121.833 44.667 122.167 44.333 122.5 44 C 119.12 43.661 115.787 43.161 112.5 42.5 C 110.833 41.5 109.5 40.167 108.5 38.5 Z" fill="#2f6059"/>
      <path class="st1" style="opacity:0.391" d="M 112.5 42.5 C 115.787 43.161 119.12 43.661 122.5 44 C 122.167 44.333 121.833 44.667 121.5 45 C 127.164 45.53 132.831 46.03 138.5 46.5 C 140.952 46.461 142.952 45.794 144.5 44.5 C 145.674 45.514 146.34 46.847 146.5 48.5 C 146.5 49.5 146.5 50.5 146.5 51.5 C 136.938 51.421 127.604 50.088 118.5 47.5 C 116.46 45.823 114.46 44.156 112.5 42.5 Z" fill="#234843"/>
      <path class="st1" style="opacity:0.284" d="M 118.5 47.5 C 127.604 50.088 136.938 51.421 146.5 51.5 C 146.5 50.5 146.5 49.5 146.5 48.5 C 147.404 49.209 147.737 50.209 147.5 51.5 C 147.5 52.833 147.5 54.167 147.5 55.5 C 139.257 55.099 131.257 53.766 123.5 51.5 C 121.246 50.876 119.579 49.543 118.5 47.5 Z" fill="#193430"/>
      <path class="st1" style="opacity:0.084" d="M 123.5 51.5 C 131.257 53.766 139.257 55.099 147.5 55.5 C 147.5 54.167 147.5 52.833 147.5 51.5 C 149.076 54.229 149.576 57.229 149 60.5 C 144.264 62.903 139.431 62.736 134.5 60 C 130.403 57.63 126.736 54.797 123.5 51.5 Z" fill="#0a1413"/>
    </g>
    <g id="left_wing__mark2">
      <path class="st1" style="opacity:0.82" d="M 109 50 C 108.914 50.996 109.248 51.829 110 52.5 C 109.333 52.833 108.667 53.167 108 53.5 C 110.215 53.67 112.215 54.337 114 55.5 C 106.341 56 98.674 56.166 91 56 C 91 54 91 52 91 50 C 91.878 46.796 94.045 45.13 97.5 45 C 101.672 45.998 105.506 47.664 109 50 Z" fill="#458c82"/>
      <path class="st1" style="opacity:0.642" d="M 109 50 C 112.622 52.287 115.955 54.953 119 58 C 115.562 59.323 111.729 59.99 107.5 60 C 101.979 59.854 96.479 59.521 91 59 C 91 58 91 57 91 56 C 98.674 56.166 106.341 56 114 55.5 C 112.215 54.337 110.215 53.67 108 53.5 C 108.667 53.167 109.333 52.833 110 52.5 C 109.248 51.829 108.914 50.996 109 50 Z" fill="#377169"/>
      <path class="st1" style="opacity:0.535" d="M 91 50 C 91 52 91 54 91 56 C 91 57 91 58 91 59 C 96.479 59.521 101.979 59.854 107.5 60 C 111.729 59.99 115.562 59.323 119 58 C 120 58.333 120.667 59 121 60 C 120.914 60.996 121.248 61.829 122 62.5 C 119.157 62.946 116.324 63.446 113.5 64 C 105.976 63.351 98.476 62.685 91 62 C 89.709 57.899 89.709 53.899 91 50 Z" fill="#2e5d57"/>
      <path class="st1" style="opacity:0.392" d="M 121 60 C 122.667 61 124 62.333 125 64 C 124.914 64.996 125.248 65.829 126 66.5 C 115.61 68.593 105.277 68.426 95 66 C 93.333 65 92 63.667 91 62 C 98.476 62.685 105.976 63.351 113.5 64 C 116.324 63.446 119.157 62.946 122 62.5 C 121.248 61.829 120.914 60.996 121 60 Z" fill="#244944"/>
      <path class="st1" style="opacity:0.315" d="M 125 64 C 126.563 65.445 127.896 67.112 129 69 C 125.732 70.322 122.065 70.989 118 71 C 112.317 70.818 106.65 70.484 101 70 C 98.302 69.655 96.302 68.322 95 66 C 105.277 68.426 115.61 68.593 126 66.5 C 125.248 65.829 124.914 64.996 125 64 Z" fill="#1b3633"/>
      <path class="st1" style="opacity:0.18" d="M 129 69 C 130.762 69.762 131.762 71.096 132 73 C 129.413 74.316 126.413 74.983 123 75 C 118.641 74.851 114.308 74.517 110 74 C 106.588 73.458 103.588 72.125 101 70 C 106.65 70.484 112.317 70.818 118 71 C 122.065 70.989 125.732 70.322 129 69 Z" fill="#10211f"/>
      <path class="st1" style="opacity:0.123" d="M 132 73 C 133.574 74.602 134.241 76.602 134 79 C 125.518 79.105 117.518 77.438 110 74 C 114.308 74.517 118.641 74.851 123 75 C 126.413 74.983 129.413 74.316 132 73 Z" fill="#07100f"/>
    </g>
    <g id="left_wing__mark3">
      <path class="st1" style="opacity:0.89" d="M108.49998,80c1.223,2.272 3.223,3.4386 6,3.5c-0.333,0.3333 -0.667,0.6667 -1,1c-5.019,0.4983 -10.0192,0.3316 -15,-0.5c0,-1.3333 0,-2.6667 0,-4c3.2307,-1.2815 6.5641,-1.2815 10,0 Z" fill="#4c9c91"/>
      <path class="st1" style="opacity:0.676" d="M98.49998,80c0,1.3333 0,2.6667 0,4c4.9808,0.8316 9.981,0.9983 15,0.5c0.333,-0.3333 0.667,-0.6667 1,-1c-2.777,-0.0614 -4.777,-1.228 -6,-3.5c4.903,1.4517 9.57,3.4517 14,6c-0.059,2.2224 -1.225,3.2224 -3.5,3c-7.283,-0.5187 -14.4493,-1.5187 -21.5,-3c-0.9629,-2.142 -0.6296,-4.142 1,-6 Z" fill="#39756d"/>
      <path class="st1" style="opacity:0.503" d="M97.49998,86c7.0507,1.4813 14.217,2.4813 21.5,3c2.275,0.2224 3.441,-0.7776 3.5,-3c1,0.3333 1.667,1 2,2c0,1 0,2 0,3c-8.747,0.0896 -17.4141,-0.5771 -26,-2c-0.6098,-0.891 -0.9431,-1.891 -1,-3 Z" fill="#2a554f"/>
      <path class="st1" style="opacity:0.361" d="M124.49998,88c1.301,1.3845 1.301,2.8845 0,4.5c-6.667,0.6667 -13.333,0.6667 -20,0c-2.5254,-0.4238 -4.5254,-1.5905 -6,-3.5c8.5859,1.4229 17.253,2.0896 26,2c0,-1 0,-2 0,-3 Z" fill="#19322f"/>
    </g>
    <g id="right_buttom">
      <path class="st0" d="M 264.5 244.5 C 265.563 243.312 266.897 242.812 268.5 243 C 272.095 259.782 277.095 276.116 283.5 292 C 285.768 296.356 288.435 300.523 291.5 304.5 C 296.243 305.97 300.909 307.636 305.5 309.5 C 307.377 311.626 308.377 314.126 308.5 317 C 313.072 327.525 317.572 338.192 322 349 C 323.511 351.362 325.011 353.695 326.5 356 C 330.683 356.654 333.516 354.988 335 351 C 334.128 340.979 333.128 330.979 332 321 C 342.869 319.477 350.202 313.477 354 303 C 354.77 296.869 355.936 290.869 357.5 285 C 360.796 281.202 364.296 277.536 368 274 C 371.303 267.846 370.97 261.846 367 256 C 364.02 252.186 360.854 248.519 357.5 245 C 357.833 244 358.5 243.333 359.5 243 C 377.633 257.204 377.967 271.537 360.5 286 C 359.878 295.507 357.378 304.507 353 313 C 348.43 319.428 342.264 322.428 334.5 322 C 336.167 330.668 337.834 339.335 339.5 348 C 338.903 352.879 336.57 356.546 332.5 359 C 329.833 359 327.167 359 324.5 359 C 324.5 358.667 324.5 358.333 324.5 358 C 321.81 355.461 319.643 352.461 318 349 C 313.47 339.238 309.636 329.238 306.5 319 C 305.422 316.961 304.422 314.794 303.5 312.5 C 298.843 310.84 294.177 309.173 289.5 307.5 C 286.12 304.29 283.787 300.457 282.5 296 C 274.436 279.645 268.436 262.479 264.5 244.5 Z" stroke="#77d2b8" fill="#77d2b8"/>
    </g>
    <g id="right_buttom__mark1">
      <path class="st1" style="opacity:0.714" d="M345.49999,293.99999c-0.652,1.225 -1.819,1.892 -3.5,2c-2.665,-0.168 -5.165,-0.835 -7.5,-2c-0.841,-1.879 -1.175,-3.879 -1,-6c5.371,-0.648 9.371,1.352 12,6 Z" stroke="#3c7a71" fill="#3c7a71"/>
      <path class="st1" style="opacity:0.472" d="M334.49999,293.99999c2.335,1.165 4.835,1.832 7.5,2c1.681,-0.108 2.848,-0.775 3.5,-2c0.838,0.342 1.172,1.008 1,2c0,1 0,2 0,3c-3.402,0.158 -6.736,-0.176 -10,-1c-1.1,-1.105 -1.767,-2.438 -2,-4 Z" stroke="#254a45" fill="#254a45"/>
      <path class="st1" style="opacity:0.284" d="M346.49999,295.99999c1.573,3.209 0.573,5.543 -3,7c-2.524,-1.092 -4.857,-2.426 -7,-4c0,-0.333 0,-0.667 0,-1c3.264,0.824 6.598,1.158 10,1c0,-1 0,-2 0,-3 Z" stroke="#132623" fill="#132623"/>
    </g>
    <g id="right_buttom__mark2">
      <path class="st1" style="opacity:0.773" d="M332.5,295.5c0.671,1.347 0.671,2.514 0,3.5c-3.577,1.934 -7.243,2.434 -11,1.5c0.227,-8.533 3.894,-10.2 11,-5 Z" stroke="#489289" fill="#489289"/>
      <path class="st1" style="opacity:0.576" d="M332.5,295.5c0.667,0.333 1.333,0.667 2,1c0.057,1.109 0.39,2.109 1,3c-0.039,1.083 -0.373,2.083 -1,3c-2.763,1.511 -5.596,2.844 -8.5,4c-1.077,-0.929 -2.244,-1.596 -3.5,-2c-0.734,-1.208 -1.067,-2.541 -1,-4c3.757,0.934 7.423,0.434 11,-1.5c0.671,-0.986 0.671,-2.153 0,-3.5 Z" stroke="#356b64" fill="#356b64"/>
      <path class="st1" style="opacity:0.467" d="M335.5,299.5c1.431,1.28 2.098,2.947 2,5c0,1 0,2 0,3c-3.962,0.876 -7.962,1.542 -12,2c-1.252,-1.501 -2.252,-3.168 -3,-5c1.256,0.404 2.423,1.071 3.5,2c2.904,-1.156 5.737,-2.489 8.5,-4c0.627,-0.917 0.961,-1.917 1,-3 Z" stroke="#27504b" fill="#27504b"/>
      <path class="st1" style="opacity:0.327" d="M337.5,304.5c1.082,6.731 -1.918,9.231 -9,7.5c-1.071,-0.852 -2.071,-1.685 -3,-2.5c4.038,-0.458 8.038,-1.124 12,-2c0,-1 0,-2 0,-3 Z" stroke="#172e2b" fill="#172e2b"/>
    </g>
    <g id="left_buttom">
      <path class="st0" d="M 214 243.5 C 212.374 255.411 209.041 267.077 204 278.5 C 201.405 286.363 198.238 294.03 194.5 301.5 C 193.094 304.409 190.928 306.409 188 307.5 C 183.866 309.242 179.7 310.909 175.5 312.5 C 170.916 327.651 164.75 341.984 157 355.5 C 156.333 356.5 155.667 357.5 155 358.5 C 152.333 358.5 149.667 358.5 147 358.5 C 142.93 356.046 140.597 352.379 140 347.5 C 141.666 338.835 143.333 330.168 145 321.5 C 133.735 321.096 126.235 315.429 122.5 304.5 C 121.059 298.581 120.226 292.581 120 286.5 C 101.58 272.236 101.414 257.57 119.5 242.5 C 120.559 242.63 121.392 243.13 122 244 C 118.833 247.833 115.667 251.667 112.5 255.5 C 108.587 261.36 108.254 267.36 111.5 273.5 C 115.604 277.095 119.104 281.095 122 285.5 C 123.635 290.925 124.801 296.591 125.5 302.5 C 129.298 312.977 136.631 318.977 147.5 320.5 C 146.372 330.479 145.372 340.479 144.5 350.5 C 146.888 355.74 150.388 356.74 155 353.5 C 161.502 339.505 167.336 325.172 172.5 310.5 C 173.316 309.177 174.483 308.511 176 308.5 C 179.785 306.734 183.785 305.234 188 304 C 188.833 303.167 189.667 302.333 190.5 301.5 C 194.452 293.107 198.286 284.773 202 276.5 C 205.405 265.95 208.405 255.283 211 244.5 C 211.891 243.89 212.891 243.557 214 243.5 Z M 120 286.5 C 119.909 284.302 120.575 283.969 122 285.5 C 120.575 283.969 119.909 284.302 120 286.5 Z" stroke="#77d2b8" fill="#77d2b8"/>
    </g>
    <g id="left_buttom__mark1">
      <path class="st1" style="opacity:0.749" d="M146.5,291.5c-2.891,0.903 -5.891,1.236 -9,1c0,-1 0,-2 0,-3c2.391,-3.417 5.725,-4.75 10,-4c0.175,2.121 -0.159,4.121 -1,6 Z" stroke="#3e7e76" fill="#3e7e76"/>
      <path class="st1" style="opacity:0.502" d="M137.5,289.5c0,1 0,2 0,3c3.109,0.236 6.109,-0.097 9,-1c-0.233,1.562 -0.9,2.895 -2,4c-3.307,0.551 -6.64,0.884 -10,1c0,-1 0,-2 0,-3c0.238,-1.904 1.238,-3.238 3,-4 Z" stroke="#274f4a" fill="#274f4a"/>
      <path class="st1" style="opacity:0.286" d="M134.5,293.5c0,1 0,2 0,3c3.36,-0.116 6.693,-0.449 10,-1c0,0.333 0,0.667 0,1c-2.143,1.574 -4.476,2.908 -7,4c-3.573,-1.457 -4.573,-3.791 -3,-7 Z" stroke="#142724" fill="#142724"/>
    </g>
    <g id="left_buttom__mark2">
      <path class="st1" style="opacity:0.894" d="M149.5,294.5c1.788,-0.285 3.455,0.048 5,1c-1.141,0.925 -1.141,1.759 0,2.5c-3.266,1.991 -6.766,3.491 -10.5,4.5c-1.033,-0.048 -1.366,-0.381 -1,-1c1.067,-0.691 2.234,-1.191 3.5,-1.5c-1.256,-0.417 -1.923,-1.25 -2,-2.5c1.399,-1.39 3.066,-2.39 5,-3 Z" stroke="#4c9b91" fill="#4c9b91"/>
      <path class="st1" style="opacity:0.676" d="M149.5,294.5c5.941,-1.93 8.274,0.403 7,7c-4.66,0.997 -9.326,1.997 -14,3c-0.798,-0.457 -1.131,-1.124 -1,-2c0.667,-1.667 1.333,-3.333 2,-5c0.333,0 0.667,0 1,0c0.077,1.25 0.744,2.083 2,2.5c-1.266,0.309 -2.433,0.809 -3.5,1.5c-0.366,0.619 -0.033,0.952 1,1c3.734,-1.009 7.234,-2.509 10.5,-4.5c-1.141,-0.741 -1.141,-1.575 0,-2.5c-1.545,-0.952 -3.212,-1.285 -5,-1 Z" stroke="#3f8178" fill="#3f8178"/>
      <path class="st1" style="opacity:0.643" d="M156.5,301.5c0,0.333 0,0.667 0,1c-1.586,0.648 -3.253,1.148 -5,1.5c0.667,0.667 1.333,1.333 2,2c-2.5,0.833 -5,1.667 -7.5,2.5c-1.533,-1.195 -3.033,-1.195 -4.5,0c-0.886,-0.825 -1.219,-1.825 -1,-3c-0.237,-1.291 0.096,-2.291 1,-3c-0.131,0.876 0.202,1.543 1,2c4.674,-1.003 9.34,-2.003 14,-3 Z" stroke="#346a63" fill="#346a63"/>
      <path class="st1" style="opacity:0.392" d="M156.5,302.5c-1.478,7.999 -6.144,11.499 -14,10.5c-2.67,-2.183 -3.337,-4.683 -2,-7.5c-0.219,1.175 0.114,2.175 1,3c1.467,-1.195 2.967,-1.195 4.5,0c2.5,-0.833 5,-1.667 7.5,-2.5c-0.667,-0.667 -1.333,-1.333 -2,-2c1.747,-0.352 3.414,-0.852 5,-1.5 Z" stroke="#1e3c38" fill="#1e3c38"/>
    </g>
  </g>
</svg>