<?xml version="1.0" encoding="UTF-8"?>
<!DOCTYPE svg PUBLIC "-//W3C//DTD SVG 1.1//EN" "http://www.w3.org/Graphics/SVG/1.1/DTD/svg11.dtd">
<svg xmlns="http://www.w3.org/2000/svg" version="1.1" width="480px" height="360px" style="shape-rendering:geometricPrecision; text-rendering:geometricPrecision; image-rendering:optimizeQuality; fill-rule:evenodd; clip-rule:evenodd" xmlns:xlink="http://www.w3.org/1999/xlink">
<g><path style="opacity:1" fill="#3f7f76" d="M 110.5,-0.5 C 114.5,-0.5 118.5,-0.5 122.5,-0.5C 130.608,2.05337 137.608,6.3867 143.5,12.5C 142.209,12.2627 141.209,12.596 140.5,13.5C 133.671,7.04903 125.504,3.38236 116,2.5C 113.747,2.63126 111.581,3.13126 109.5,4C 105.667,6.5 102.5,9.66667 100,13.5C 96.0039,20.6867 92.5039,28.0201 89.5,35.5C 89.1667,34.5 88.5,33.8333 87.5,33.5C 90.7673,18.8993 98.4339,7.56601 110.5,-0.5 Z"/></g>
<g><path style="opacity:1" fill="#3f7f77" d="M 356.5,-0.5 C 360.5,-0.5 364.5,-0.5 368.5,-0.5C 380.566,7.56601 388.233,18.8993 391.5,33.5C 390.5,33.8333 389.833,34.5 389.5,35.5C 386.496,28.0201 382.996,20.6867 379,13.5C 376.5,9.66667 373.333,6.5 369.5,4C 362.635,2.04054 355.969,2.70721 349.5,6C 346.014,7.99599 342.681,10.1627 339.5,12.5C 338.761,12.631 338.094,12.4643 337.5,12C 338.381,11.2917 339.047,10.4584 339.5,9.5C 340.29,8.20577 341.29,7.0391 342.5,6C 347.147,3.50565 351.814,1.33898 356.5,-0.5 Z"/></g>
<g><path style="opacity:1" fill="#54aa9f" d="M 115.5,17.5 C 121.241,19.2364 126.241,22.2364 130.5,26.5C 130.414,27.4959 130.748,28.3292 131.5,29C 129.833,29.3333 128.167,29.6667 126.5,30C 128.833,30.3333 131.167,30.6667 133.5,31C 124.155,31.517 114.822,31.3503 105.5,30.5C 105.5,28.5 105.5,26.5 105.5,24.5C 105.402,22.4471 106.069,20.7804 107.5,19.5C 109.882,17.9539 112.549,17.2872 115.5,17.5 Z"/></g>
<g><path style="opacity:1" fill="#51a59a" d="M 373.5,32.5 C 363.821,33.8998 354.154,33.7332 344.5,32C 346.373,30.2962 348.04,28.4628 349.5,26.5C 354.41,20.4093 360.743,17.2427 368.5,17C 371.663,18.4798 373.496,20.9798 374,24.5C 374.801,27.367 374.634,30.0336 373.5,32.5 Z"/></g>
<g><path style="opacity:0.992" fill="#346962" d="M 115.5,17.5 C 112.549,17.2872 109.882,17.9539 107.5,19.5C 109.615,16.4828 112.282,15.8161 115.5,17.5 Z"/></g>
<g><path style="opacity:1" fill="#3e7c74" d="M 143.5,12.5 C 148.457,15.6228 152.624,19.6228 156,24.5C 161.263,30.7059 165.763,37.3726 169.5,44.5C 168.348,43.375 167.348,43.375 166.5,44.5C 158.615,33.6063 149.949,23.273 140.5,13.5C 141.209,12.596 142.209,12.2627 143.5,12.5 Z"/></g>
<g><path style="opacity:1" fill="#3d7971" d="M 339.5,9.5 C 339.047,10.4584 338.381,11.2917 337.5,12C 338.094,12.4643 338.761,12.631 339.5,12.5C 327.954,23.6991 317.954,36.0324 309.5,49.5C 309.5,47.8333 309.5,46.1667 309.5,44.5C 316.652,30.3515 326.652,18.6849 339.5,9.5 Z"/></g>
<g><path style="opacity:0.82" fill="#458d83" d="M 105.5,24.5 C 105.5,26.5 105.5,28.5 105.5,30.5C 114.822,31.3503 124.155,31.517 133.5,31C 131.167,30.6667 128.833,30.3333 126.5,30C 128.167,29.6667 129.833,29.3333 131.5,29C 130.748,28.3292 130.414,27.4959 130.5,26.5C 133.903,28.8998 136.57,31.8998 138.5,35.5C 138.414,36.4959 138.748,37.3292 139.5,38C 128.398,37.7635 117.398,36.5968 106.5,34.5C 105.028,32.8825 104.361,30.8825 104.5,28.5C 104.511,26.9549 104.844,25.6216 105.5,24.5 Z"/></g>
<g><path style="opacity:1" fill="#3f7f77" d="M 87.5,33.5 C 88.5,33.8333 89.1667,34.5 89.5,35.5C 81.3581,62.3454 79.0248,89.6787 82.5,117.5C 81.3294,124.684 78.996,131.35 75.5,137.5C 75.8693,135.007 75.2027,134.34 73.5,135.5C 78.722,122.305 80.0554,108.639 77.5,94.5C 77.1268,73.4265 80.4602,53.0931 87.5,33.5 Z"/></g>
<g><path style="opacity:1" fill="#3f7f76" d="M 391.5,33.5 C 401.06,60.941 403.727,89.1076 399.5,118C 401.4,123.867 403.4,129.7 405.5,135.5C 403.797,134.34 403.131,135.007 403.5,137.5C 400.104,131.485 397.77,124.985 396.5,118C 400.001,90.0074 397.667,62.5074 389.5,35.5C 389.833,34.5 390.5,33.8333 391.5,33.5 Z"/></g>
<g><path style="opacity:0.786" fill="#43887f" d="M 349.5,26.5 C 348.04,28.4628 346.373,30.2962 344.5,32C 354.154,33.7332 363.821,33.8998 373.5,32.5C 373.25,34.674 372.25,36.3406 370.5,37.5C 367.15,37.335 363.817,37.5017 360.5,38C 369.766,39.1426 369.766,39.9759 360.5,40.5C 353.566,39.3363 346.566,38.3363 339.5,37.5C 340.381,36.0295 341.714,35.1962 343.5,35C 342.829,34.0138 342.829,32.8471 343.5,31.5C 344.911,29.086 346.911,27.4194 349.5,26.5 Z"/></g>
<g><path style="opacity:0.645" fill="#377169" d="M 343.5,31.5 C 342.829,32.8471 342.829,34.0138 343.5,35C 341.714,35.1962 340.381,36.0295 339.5,37.5C 346.566,38.3363 353.566,39.3363 360.5,40.5C 369.766,39.9759 369.766,39.1426 360.5,38C 363.817,37.5017 367.15,37.335 370.5,37.5C 370.262,39.4044 369.262,40.7377 367.5,41.5C 365.324,42.4484 362.824,43.1151 360,43.5C 352.42,43.0084 344.92,42.0084 337.5,40.5C 338.127,39.5832 338.461,38.5832 338.5,37.5C 339.419,34.9108 341.086,32.9108 343.5,31.5 Z"/></g>
<g><path style="opacity:0.606" fill="#39746c" d="M 106.5,34.5 C 117.398,36.5968 128.398,37.7635 139.5,38C 138.748,37.3292 138.414,36.4959 138.5,35.5C 140.262,36.2623 141.262,37.5956 141.5,39.5C 141.586,40.4959 141.252,41.3292 140.5,42C 129.568,43.007 118.901,41.8404 108.5,38.5C 107.4,37.3951 106.733,36.0618 106.5,34.5 Z"/></g>
<g><path style="opacity:0.534" fill="#2f6059" d="M 108.5,38.5 C 118.901,41.8404 129.568,43.007 140.5,42C 141.252,41.3292 141.586,40.4959 141.5,39.5C 143.25,40.6594 144.25,42.326 144.5,44.5C 142.952,45.7943 140.952,46.4609 138.5,46.5C 132.831,46.0301 127.164,45.5301 121.5,45C 121.833,44.6667 122.167,44.3333 122.5,44C 119.12,43.6614 115.787,43.1614 112.5,42.5C 110.833,41.5 109.5,40.1667 108.5,38.5 Z"/></g>
<g><path style="opacity:0.503" fill="#2c5a54" d="M 338.5,37.5 C 338.461,38.5832 338.127,39.5832 337.5,40.5C 344.92,42.0084 352.42,43.0084 360,43.5C 362.824,43.1151 365.324,42.4484 367.5,41.5C 365.909,43.6326 363.909,45.2993 361.5,46.5C 359.801,46.3398 358.134,46.5065 356.5,47C 359.063,47.763 359.063,48.263 356.5,48.5C 349.183,47.5771 341.85,46.7438 334.5,46C 335.167,45.6667 335.833,45.3333 336.5,45C 335.748,44.3292 335.414,43.4959 335.5,42.5C 335.75,40.326 336.75,38.6594 338.5,37.5 Z"/></g>
<g><path style="opacity:0.391" fill="#234843" d="M 112.5,42.5 C 115.787,43.1614 119.12,43.6614 122.5,44C 122.167,44.3333 121.833,44.6667 121.5,45C 127.164,45.5301 132.831,46.0301 138.5,46.5C 140.952,46.4609 142.952,45.7943 144.5,44.5C 145.674,45.5137 146.34,46.847 146.5,48.5C 146.5,49.5 146.5,50.5 146.5,51.5C 136.938,51.4211 127.604,50.0878 118.5,47.5C 116.46,45.823 114.46,44.1563 112.5,42.5 Z"/></g>
<g><path style="opacity:0.34" fill="#20413d" d="M 335.5,42.5 C 335.414,43.4959 335.748,44.3292 336.5,45C 335.833,45.3333 335.167,45.6667 334.5,46C 341.85,46.7438 349.183,47.5771 356.5,48.5C 359.063,48.263 359.063,47.763 356.5,47C 358.134,46.5065 359.801,46.3398 361.5,46.5C 360.109,48.8903 358.109,50.5569 355.5,51.5C 347.858,52.3943 340.191,52.3943 332.5,51.5C 332.5,50.5 332.5,49.5 332.5,48.5C 332.992,46.1815 333.992,44.1815 335.5,42.5 Z"/></g>
<g><path style="opacity:0.284" fill="#193430" d="M 118.5,47.5 C 127.604,50.0878 136.938,51.4211 146.5,51.5C 146.5,50.5 146.5,49.5 146.5,48.5C 147.404,49.209 147.737,50.209 147.5,51.5C 147.5,52.8333 147.5,54.1667 147.5,55.5C 139.257,55.099 131.257,53.7657 123.5,51.5C 121.246,50.8763 119.579,49.543 118.5,47.5 Z"/></g>
<g><path style="opacity:0.82" fill="#458c82" d="M 112.5,51.5 C 112.414,52.4959 112.748,53.3292 113.5,54C 112.833,54.3333 112.167,54.6667 111.5,55C 113.715,55.1705 115.715,55.8372 117.5,57C 109.841,57.4997 102.174,57.6664 94.5,57.5C 94.5,55.5 94.5,53.5 94.5,51.5C 95.3781,48.2964 97.5448,46.6298 101,46.5C 105.172,47.4978 109.006,49.1645 112.5,51.5 Z"/></g>
<g><path style="opacity:0.248" fill="#162e2b" d="M 332.5,48.5 C 332.5,49.5 332.5,50.5 332.5,51.5C 340.191,52.3943 347.858,52.3943 355.5,51.5C 354.738,53.2624 353.404,54.2624 351.5,54.5C 345.528,55.4739 339.528,55.6406 333.5,55C 332.027,54.2904 331.36,53.1238 331.5,51.5C 331.263,50.209 331.596,49.209 332.5,48.5 Z"/></g>
<g><path style="opacity:0.82" fill="#489288" d="M 384.5,52.5 C 384.5,54.1667 384.5,55.8333 384.5,57.5C 376.826,57.6664 369.159,57.4997 361.5,57C 364.5,56.6667 367.5,56.3333 370.5,56C 368.5,55.6667 366.5,55.3333 364.5,55C 365.381,54.2917 366.047,53.4584 366.5,52.5C 370.87,47.9446 376.203,46.4446 382.5,48C 384.037,49.1096 384.703,50.6096 384.5,52.5 Z"/></g>
<g><path style="opacity:0.197" fill="#0e1a18" d="M 331.5,51.5 C 331.36,53.1238 332.027,54.2904 333.5,55C 339.528,55.6406 345.528,55.4739 351.5,54.5C 346.253,60.6174 339.587,63.1174 331.5,62C 329.002,58.4926 329.002,54.9926 331.5,51.5 Z"/></g>
<g><path style="opacity:0.711" fill="#3b7870" d="M 366.5,52.5 C 366.047,53.4584 365.381,54.2917 364.5,55C 366.5,55.3333 368.5,55.6667 370.5,56C 367.5,56.3333 364.5,56.6667 361.5,57C 369.159,57.4997 376.826,57.6664 384.5,57.5C 384.5,58.8333 384.5,60.1667 384.5,61.5C 375.515,60.8342 366.515,60.5009 357.5,60.5C 357.5,60.1667 357.5,59.8333 357.5,59.5C 359.949,56.4442 362.949,54.1108 366.5,52.5 Z"/></g>
<g><path style="opacity:0.642" fill="#377169" d="M 112.5,51.5 C 116.122,53.7867 119.455,56.4534 122.5,59.5C 119.062,60.8232 115.229,61.4898 111,61.5C 105.479,61.3543 99.9794,61.021 94.5,60.5C 94.5,59.5 94.5,58.5 94.5,57.5C 102.174,57.6664 109.841,57.4997 117.5,57C 115.715,55.8372 113.715,55.1705 111.5,55C 112.167,54.6667 112.833,54.3333 113.5,54C 112.748,53.3292 112.414,52.4959 112.5,51.5 Z"/></g>
<g><path style="opacity:0.084" fill="#0a1413" d="M 123.5,51.5 C 131.257,53.7657 139.257,55.099 147.5,55.5C 147.5,54.1667 147.5,52.8333 147.5,51.5C 149.076,54.2285 149.576,57.2285 149,60.5C 144.264,62.9027 139.431,62.736 134.5,60C 130.403,57.6304 126.736,54.7971 123.5,51.5 Z"/></g>
<g><path style="opacity:0.535" fill="#2e5d57" d="M 94.5,51.5 C 94.5,53.5 94.5,55.5 94.5,57.5C 94.5,58.5 94.5,59.5 94.5,60.5C 99.9794,61.021 105.479,61.3543 111,61.5C 115.229,61.4898 119.062,60.8232 122.5,59.5C 123.5,59.8333 124.167,60.5 124.5,61.5C 124.414,62.4959 124.748,63.3292 125.5,64C 122.657,64.4461 119.824,64.9461 117,65.5C 109.476,64.8513 101.976,64.1846 94.5,63.5C 93.2092,59.3989 93.2092,55.3989 94.5,51.5 Z"/></g>
<g><path style="opacity:1" fill="#408178" d="M 169.5,44.5 C 171.47,46.6467 173.303,48.98 175,51.5C 178.78,58.0625 182.28,64.7292 185.5,71.5C 184.5,71.8333 183.833,72.5 183.5,73.5C 177.584,64.0056 171.918,54.339 166.5,44.5C 167.348,43.375 168.348,43.375 169.5,44.5 Z"/></g>
<g><path style="opacity:0.466" fill="#254c47" d="M 357.5,59.5 C 357.5,59.8333 357.5,60.1667 357.5,60.5C 356.038,61.4577 354.705,62.6244 353.5,64C 354.167,64.3333 354.833,64.6667 355.5,65C 364.244,65.1954 372.911,65.6954 381.5,66.5C 381.5,67.1667 381.167,67.5 380.5,67.5C 370.28,69.8441 359.946,70.0107 349.5,68C 350.5,67.6667 351.5,67.3333 352.5,67C 351.829,66.0138 351.829,64.8471 352.5,63.5C 353.585,61.4131 355.251,60.0798 357.5,59.5 Z"/></g>
<g><path style="opacity:0.501" fill="#2e5d57" d="M 384.5,52.5 C 385.641,55.6399 385.808,58.9733 385,62.5C 384.34,64.3237 383.173,65.657 381.5,66.5C 372.911,65.6954 364.244,65.1954 355.5,65C 354.833,64.6667 354.167,64.3333 353.5,64C 354.705,62.6244 356.038,61.4577 357.5,60.5C 366.515,60.5009 375.515,60.8342 384.5,61.5C 384.5,60.1667 384.5,58.8333 384.5,57.5C 384.5,55.8333 384.5,54.1667 384.5,52.5 Z"/></g>
<g><path style="opacity:0.392" fill="#244944" d="M 124.5,61.5 C 126.167,62.5 127.5,63.8333 128.5,65.5C 128.414,66.4959 128.748,67.3292 129.5,68C 119.11,70.0928 108.777,69.9261 98.5,67.5C 96.8333,66.5 95.5,65.1667 94.5,63.5C 101.976,64.1846 109.476,64.8513 117,65.5C 119.824,64.9461 122.657,64.4461 125.5,64C 124.748,63.3292 124.414,62.4959 124.5,61.5 Z"/></g>
<g><path style="opacity:0.315" fill="#1b3633" d="M 128.5,65.5 C 130.063,66.9448 131.396,68.6115 132.5,70.5C 129.232,71.8222 125.565,72.4888 121.5,72.5C 115.817,72.3175 110.15,71.9842 104.5,71.5C 101.802,71.1551 99.8021,69.8218 98.5,67.5C 108.777,69.9261 119.11,70.0928 129.5,68C 128.748,67.3292 128.414,66.4959 128.5,65.5 Z"/></g>
<g><path style="opacity:1" fill="#3e7d74" d="M 309.5,44.5 C 309.5,46.1667 309.5,47.8333 309.5,49.5C 297.826,69.1818 287.493,89.5151 278.5,110.5C 278.167,109.5 277.5,108.833 276.5,108.5C 284.906,85.6849 295.906,64.3516 309.5,44.5 Z"/></g>
<g><path style="opacity:0.262" fill="#19332f" d="M 352.5,63.5 C 351.829,64.8471 351.829,66.0138 352.5,67C 351.5,67.3333 350.5,67.6667 349.5,68C 359.946,70.0107 370.28,69.8441 380.5,67.5C 377.839,70.5023 374.505,72.5023 370.5,73.5C 361.766,74.135 353.433,73.4684 345.5,71.5C 347.117,68.2157 349.45,65.5491 352.5,63.5 Z"/></g>
<g><path style="opacity:0.18" fill="#10211f" d="M 132.5,70.5 C 134.262,71.2623 135.262,72.5956 135.5,74.5C 132.913,75.8164 129.913,76.483 126.5,76.5C 122.141,76.3507 117.808,76.0173 113.5,75.5C 110.088,74.9579 107.088,73.6246 104.5,71.5C 110.15,71.9842 115.817,72.3175 121.5,72.5C 125.565,72.4888 129.232,71.8222 132.5,70.5 Z"/></g>
<g><path style="opacity:0.196" fill="#10201e" d="M 345.5,71.5 C 353.433,73.4684 361.766,74.135 370.5,73.5C 368.208,75.2671 365.542,76.2671 362.5,76.5C 355.745,77.1229 349.412,76.4563 343.5,74.5C 343.427,72.9731 344.094,71.9731 345.5,71.5 Z"/></g>
<g><path style="opacity:0.123" fill="#07100f" d="M 135.5,74.5 C 137.074,76.1016 137.741,78.1016 137.5,80.5C 129.018,80.6045 121.018,78.9378 113.5,75.5C 117.808,76.0173 122.141,76.3507 126.5,76.5C 129.913,76.483 132.913,75.8164 135.5,74.5 Z"/></g>
<g><path style="opacity:1" fill="#4d9c92" d="M 389.5,83.5 C 385.486,83.6655 381.486,83.4988 377.5,83C 376.058,82.6232 375.058,81.7899 374.5,80.5C 378.701,77.7478 383.368,76.9144 388.5,78C 389.406,79.6995 389.739,81.5328 389.5,83.5 Z"/></g>
<g><path style="opacity:1" fill="#3f7d75" d="M 185.5,71.5 C 193.367,84.7506 199.7,98.7506 204.5,113.5C 203.5,113.833 202.833,114.5 202.5,115.5C 196.753,101.331 190.419,87.3311 183.5,73.5C 183.833,72.5 184.5,71.8333 185.5,71.5 Z"/></g>
<g><path style="opacity:0.072" fill="#050d0c" d="M 343.5,74.5 C 349.412,76.4563 355.745,77.1229 362.5,76.5C 355.943,79.5496 348.943,80.8829 341.5,80.5C 341.259,78.1016 341.926,76.1016 343.5,74.5 Z"/></g>
<g><path style="opacity:0.89" fill="#4c9c91" d="M 100.5,78.5 C 101.723,80.772 103.723,81.9386 106.5,82C 106.167,82.3333 105.833,82.6667 105.5,83C 100.481,83.4983 95.4808,83.3316 90.5,82.5C 90.5,81.1667 90.5,79.8333 90.5,78.5C 93.7307,77.2185 97.0641,77.2185 100.5,78.5 Z"/></g>
<g><path style="opacity:0.676" fill="#39756d" d="M 90.5,78.5 C 90.5,79.8333 90.5,81.1667 90.5,82.5C 95.4808,83.3316 100.481,83.4983 105.5,83C 105.833,82.6667 106.167,82.3333 106.5,82C 103.723,81.9386 101.723,80.772 100.5,78.5C 105.403,79.9517 110.07,81.9517 114.5,84.5C 114.441,86.7224 113.275,87.7224 111,87.5C 103.717,86.9813 96.5507,85.9813 89.5,84.5C 88.5371,82.358 88.8704,80.358 90.5,78.5 Z"/></g>
<g><path style="opacity:0.678" fill="#3d7d74" d="M 374.5,80.5 C 375.058,81.7899 376.058,82.6232 377.5,83C 381.486,83.4988 385.486,83.6655 389.5,83.5C 389.5,84.1667 389.5,84.8333 389.5,85.5C 382.492,85.6663 375.492,85.4996 368.5,85C 367.944,84.6174 367.611,84.1174 367.5,83.5C 369.426,81.7073 371.759,80.7073 374.5,80.5 Z"/></g>
<g><path style="opacity:0.572" fill="#31655e" d="M 367.5,83.5 C 367.611,84.1174 367.944,84.6174 368.5,85C 375.492,85.4996 382.492,85.6663 389.5,85.5C 389.167,86.1667 388.833,86.8333 388.5,87.5C 381.159,87.6663 373.826,87.4997 366.5,87C 364.381,86.6582 364.047,85.8249 365.5,84.5C 365.842,83.6618 366.508,83.3284 367.5,83.5 Z"/></g>
<g><path style="opacity:0.503" fill="#2a554f" d="M 89.5,84.5 C 96.5507,85.9813 103.717,86.9813 111,87.5C 113.275,87.7224 114.441,86.7224 114.5,84.5C 115.5,84.8333 116.167,85.5 116.5,86.5C 116.5,87.5 116.5,88.5 116.5,89.5C 107.753,89.5896 99.0859,88.9229 90.5,87.5C 89.8902,86.609 89.5569,85.609 89.5,84.5 Z"/></g>
<g><path style="opacity:0.361" fill="#19322f" d="M 116.5,86.5 C 117.801,87.8845 117.801,89.3845 116.5,91C 109.833,91.6667 103.167,91.6667 96.5,91C 93.9746,90.5762 91.9746,89.4095 90.5,87.5C 99.0859,88.9229 107.753,89.5896 116.5,89.5C 116.5,88.5 116.5,87.5 116.5,86.5 Z"/></g>
<g><path style="opacity:0.323" fill="#20413d" d="M 365.5,84.5 C 364.047,85.8249 364.381,86.6582 366.5,87C 373.826,87.4997 381.159,87.6663 388.5,87.5C 387.089,89.539 385.089,90.539 382.5,90.5C 375.804,90.609 369.137,90.2757 362.5,89.5C 362.5,88.5 362.5,87.5 362.5,86.5C 362.973,85.0937 363.973,84.427 365.5,84.5 Z"/></g>
<g><path style="opacity:0.248" fill="#132623" d="M 362.5,86.5 C 362.5,87.5 362.5,88.5 362.5,89.5C 369.137,90.2757 375.804,90.609 382.5,90.5C 376.013,91.654 369.346,91.8206 362.5,91C 361.199,89.3845 361.199,87.8845 362.5,86.5 Z"/></g>
<g><path style="opacity:1" fill="#418179" d="M 232.5,144.5 C 232.5,132.5 232.5,120.5 232.5,108.5C 231.167,108.5 229.833,108.5 228.5,108.5C 225.855,105.783 225.855,102.95 228.5,100C 231.883,98.9413 234.05,100.108 235,103.5C 235.667,117.167 235.667,130.833 235,144.5C 234.023,145.774 233.189,145.774 232.5,144.5 Z M 229.5,103.5 C 231.337,103.639 231.67,104.306 230.5,105.5C 229.702,105.043 229.369,104.376 229.5,103.5 Z"/></g>
<g><path style="opacity:1" fill="#42837a" d="M 250.5,100.5 C 250.737,101.791 250.404,102.791 249.5,103.5C 248.167,103.5 247.5,104.167 247.5,105.5C 248.9,106.1 249.9,107.1 250.5,108.5C 249.167,108.5 247.833,108.5 246.5,108.5C 246.5,120.5 246.5,132.5 246.5,144.5C 245.811,145.774 244.977,145.774 244,144.5C 243.333,130.833 243.333,117.167 244,103.5C 245.147,99.8572 247.314,98.8572 250.5,100.5 Z"/></g>
<g><path style="opacity:1" fill="#3a746c" d="M 250.5,100.5 C 251.993,101.312 252.66,102.645 252.5,104.5C 252.66,106.355 251.993,107.688 250.5,108.5C 249.9,107.1 248.9,106.1 247.5,105.5C 248.833,105.5 249.5,104.833 249.5,103.5C 250.404,102.791 250.737,101.791 250.5,100.5 Z"/></g>
<g><path style="opacity:0.271" fill="#18302d" d="M 228.5,108.5 C 229.833,108.5 231.167,108.5 232.5,108.5C 232.5,120.5 232.5,132.5 232.5,144.5C 231.505,133.012 231.172,121.345 231.5,109.5C 230.209,109.737 229.209,109.404 228.5,108.5 Z"/></g>
<g><path style="opacity:0.267" fill="#172f2c" d="M 250.5,108.5 C 249.791,109.404 248.791,109.737 247.5,109.5C 247.828,121.345 247.495,133.012 246.5,144.5C 246.5,132.5 246.5,120.5 246.5,108.5C 247.833,108.5 249.167,108.5 250.5,108.5 Z"/></g>
<g><path style="opacity:1" fill="#3e7d75" d="M 276.5,108.5 C 277.5,108.833 278.167,109.5 278.5,110.5C 274.909,120.773 271.409,131.106 268,141.5C 267.632,142.91 266.799,143.91 265.5,144.5C 264.369,142.926 264.202,141.259 265,139.5C 268.174,128.798 272.008,118.464 276.5,108.5 Z"/></g>
<g><path style="opacity:1" fill="#3f7d75" d="M 204.5,113.5 C 208.129,121.876 211.296,130.543 214,139.5C 214.798,141.259 214.631,142.926 213.5,144.5C 212.201,143.91 211.368,142.91 211,141.5C 208.06,132.847 205.227,124.18 202.5,115.5C 202.833,114.5 203.5,113.833 204.5,113.5 Z"/></g>
<g><path style="opacity:1" fill="#408178" d="M 75.5,137.5 C 71.9226,147.549 69.4226,157.882 68,168.5C 67.123,178.585 67.623,188.585 69.5,198.5C 68.7659,199.708 68.4326,201.041 68.5,202.5C 67.0735,200.852 66.2401,198.852 66,196.5C 62.0728,175.4 64.5728,155.067 73.5,135.5C 75.2027,134.34 75.8693,135.007 75.5,137.5 Z"/></g>
<g><path style="opacity:1" fill="#41847b" d="M 405.5,135.5 C 415.543,157.715 417.209,180.382 410.5,203.5C 409.348,204.625 408.348,204.625 407.5,203.5C 411.187,192.458 412.354,181.125 411,169.5C 409.706,158.528 407.206,147.861 403.5,137.5C 403.131,135.007 403.797,134.34 405.5,135.5 Z"/></g>
<g><path style="opacity:1" fill="#3f7e76" d="M 69.5,198.5 C 72.8506,208.522 78.684,216.855 87,223.5C 87.4828,224.448 87.6495,225.448 87.5,226.5C 83.1587,225.569 79.6587,223.236 77,219.5C 73.0799,214.327 70.2466,208.66 68.5,202.5C 68.4326,201.041 68.7659,199.708 69.5,198.5 Z"/></g>
<g><path style="opacity:1" fill="#3d7971" d="M 407.5,203.5 C 408.348,204.625 409.348,204.625 410.5,203.5C 407.506,212.653 402.172,220.153 394.5,226C 393.552,226.483 392.552,226.649 391.5,226.5C 391.351,225.448 391.517,224.448 392,223.5C 398.909,218.102 404.076,211.435 407.5,203.5 Z"/></g>
<g><path style="opacity:0.298" fill="#182e2b" d="M 214.5,244.5 C 213.391,244.557 212.391,244.89 211.5,245.5C 212.053,243.448 213.053,243.115 214.5,244.5 Z"/></g>
<g><path style="opacity:1" fill="#3d7b73" d="M 214.5,244.5 C 212.874,256.411 209.541,268.077 204.5,279.5C 204.167,278.5 203.5,277.833 202.5,277.5C 205.905,266.95 208.905,256.283 211.5,245.5C 212.391,244.89 213.391,244.557 214.5,244.5 Z"/></g>
<g><path style="opacity:1" fill="#3c776f" d="M 282.5,292.5 C 281.566,293.568 281.232,294.901 281.5,296.5C 273.436,280.145 267.436,262.979 263.5,245C 264.563,243.812 265.897,243.312 267.5,243.5C 271.095,260.282 276.095,276.616 282.5,292.5 Z"/></g>
<g><path style="opacity:1" fill="#3e7c74" d="M 122.5,286.5 C 121.075,284.969 120.409,285.302 120.5,287.5C 102.08,273.236 101.914,258.57 120,243.5C 121.059,243.63 121.892,244.13 122.5,245C 119.333,248.833 116.167,252.667 113,256.5C 109.087,262.36 108.754,268.36 112,274.5C 116.104,278.095 119.604,282.095 122.5,286.5 Z"/></g>
<g><path style="opacity:1" fill="#3e7d75" d="M 359.5,286.5 C 358.791,285.596 357.791,285.263 356.5,285.5C 359.796,281.702 363.296,278.036 367,274.5C 370.303,268.346 369.97,262.346 366,256.5C 363.02,252.686 359.854,249.019 356.5,245.5C 356.833,244.5 357.5,243.833 358.5,243.5C 376.633,257.704 376.967,272.037 359.5,286.5 Z"/></g>
<g><path style="opacity:0.749" fill="#3e7e76" d="M 146.5,291.5 C 143.609,292.403 140.609,292.736 137.5,292.5C 137.5,291.5 137.5,290.5 137.5,289.5C 139.891,286.083 143.225,284.75 147.5,285.5C 147.675,287.621 147.341,289.621 146.5,291.5 Z"/></g>
<g><path style="opacity:0.714" fill="#3c7a71" d="M 343.5,291.5 C 342.848,292.725 341.681,293.392 340,293.5C 337.335,293.332 334.835,292.665 332.5,291.5C 331.659,289.621 331.325,287.621 331.5,285.5C 336.871,284.852 340.871,286.852 343.5,291.5 Z"/></g>
<g><path style="opacity:0.502" fill="#274f4a" d="M 137.5,289.5 C 137.5,290.5 137.5,291.5 137.5,292.5C 140.609,292.736 143.609,292.403 146.5,291.5C 146.267,293.062 145.6,294.395 144.5,295.5C 141.193,296.051 137.86,296.384 134.5,296.5C 134.5,295.5 134.5,294.5 134.5,293.5C 134.738,291.596 135.738,290.262 137.5,289.5 Z"/></g>
<g><path style="opacity:0.472" fill="#254a45" d="M 332.5,291.5 C 334.835,292.665 337.335,293.332 340,293.5C 341.681,293.392 342.848,292.725 343.5,291.5C 344.338,291.842 344.672,292.508 344.5,293.5C 344.5,294.5 344.5,295.5 344.5,296.5C 341.098,296.658 337.764,296.324 334.5,295.5C 333.4,294.395 332.733,293.062 332.5,291.5 Z"/></g>
<g><path style="opacity:1" fill="#3c766f" d="M 202.5,277.5 C 203.5,277.833 204.167,278.5 204.5,279.5C 201.905,287.363 198.738,295.03 195,302.5C 193.594,305.409 191.428,307.409 188.5,308.5C 189.85,307.35 189.684,306.683 188,306.5C 184.283,308.018 180.449,309.018 176.5,309.5C 180.285,307.734 184.285,306.234 188.5,305C 189.333,304.167 190.167,303.333 191,302.5C 194.952,294.107 198.786,285.773 202.5,277.5 Z"/></g>
<g><path style="opacity:0.286" fill="#142724" d="M 134.5,293.5 C 134.5,294.5 134.5,295.5 134.5,296.5C 137.86,296.384 141.193,296.051 144.5,295.5C 144.5,295.833 144.5,296.167 144.5,296.5C 142.357,298.074 140.024,299.408 137.5,300.5C 133.927,299.043 132.927,296.709 134.5,293.5 Z"/></g>
<g><path style="opacity:0.284" fill="#132623" d="M 344.5,293.5 C 346.073,296.709 345.073,299.043 341.5,300.5C 338.976,299.408 336.643,298.074 334.5,296.5C 334.5,296.167 334.5,295.833 334.5,295.5C 337.764,296.324 341.098,296.658 344.5,296.5C 344.5,295.5 344.5,294.5 344.5,293.5 Z"/></g>
<g><path style="opacity:0.894" fill="#4c9b91" d="M 150.5,293.5 C 152.288,293.215 153.955,293.548 155.5,294.5C 154.359,295.425 154.359,296.259 155.5,297C 152.234,298.991 148.734,300.491 145,301.5C 143.967,301.452 143.634,301.119 144,300.5C 145.067,299.809 146.234,299.309 147.5,299C 146.244,298.583 145.577,297.75 145.5,296.5C 146.899,295.11 148.566,294.11 150.5,293.5 Z"/></g>
<g><path style="opacity:0.773" fill="#489289" d="M 332.5,295.5 C 333.171,296.847 333.171,298.014 332.5,299C 328.923,300.934 325.257,301.434 321.5,300.5C 321.727,291.967 325.394,290.3 332.5,295.5 Z"/></g>
<g><path style="opacity:0.676" fill="#3f8178" d="M 150.5,293.5 C 156.441,291.57 158.774,293.903 157.5,300.5C 152.84,301.497 148.174,302.497 143.5,303.5C 142.702,303.043 142.369,302.376 142.5,301.5C 143.167,299.833 143.833,298.167 144.5,296.5C 144.833,296.5 145.167,296.5 145.5,296.5C 145.577,297.75 146.244,298.583 147.5,299C 146.234,299.309 145.067,299.809 144,300.5C 143.634,301.119 143.967,301.452 145,301.5C 148.734,300.491 152.234,298.991 155.5,297C 154.359,296.259 154.359,295.425 155.5,294.5C 153.955,293.548 152.288,293.215 150.5,293.5 Z"/></g>
<g><path style="opacity:0.643" fill="#346a63" d="M 157.5,300.5 C 157.5,300.833 157.5,301.167 157.5,301.5C 155.914,302.148 154.247,302.648 152.5,303C 153.167,303.667 153.833,304.333 154.5,305C 152,305.833 149.5,306.667 147,307.5C 145.467,306.305 143.967,306.305 142.5,307.5C 141.614,306.675 141.281,305.675 141.5,304.5C 141.263,303.209 141.596,302.209 142.5,301.5C 142.369,302.376 142.702,303.043 143.5,303.5C 148.174,302.497 152.84,301.497 157.5,300.5 Z"/></g>
<g><path style="opacity:0.576" fill="#356b64" d="M 332.5,295.5 C 333.167,295.833 333.833,296.167 334.5,296.5C 334.557,297.609 334.89,298.609 335.5,299.5C 335.461,300.583 335.127,301.583 334.5,302.5C 331.737,304.011 328.904,305.344 326,306.5C 324.923,305.571 323.756,304.904 322.5,304.5C 321.766,303.292 321.433,301.959 321.5,300.5C 325.257,301.434 328.923,300.934 332.5,299C 333.171,298.014 333.171,296.847 332.5,295.5 Z"/></g>
<g><path style="opacity:1" fill="#3d7a72" d="M 282.5,292.5 C 284.768,296.856 287.435,301.023 290.5,305C 295.243,306.47 299.909,308.136 304.5,310C 306.377,312.126 307.377,314.626 307.5,317.5C 306.5,317.833 305.833,318.5 305.5,319.5C 304.422,317.461 303.422,315.294 302.5,313C 297.843,311.34 293.177,309.673 288.5,308C 285.12,304.79 282.787,300.957 281.5,296.5C 281.232,294.901 281.566,293.568 282.5,292.5 Z"/></g>
<g><path style="opacity:0.467" fill="#27504b" d="M 335.5,299.5 C 336.931,300.78 337.598,302.447 337.5,304.5C 337.5,305.5 337.5,306.5 337.5,307.5C 333.538,308.376 329.538,309.042 325.5,309.5C 324.248,307.999 323.248,306.332 322.5,304.5C 323.756,304.904 324.923,305.571 326,306.5C 328.904,305.344 331.737,304.011 334.5,302.5C 335.127,301.583 335.461,300.583 335.5,299.5 Z"/></g>
<g><path style="opacity:0.392" fill="#1e3c38" d="M 157.5,301.5 C 156.022,309.499 151.356,312.999 143.5,312C 140.83,309.817 140.163,307.317 141.5,304.5C 141.281,305.675 141.614,306.675 142.5,307.5C 143.967,306.305 145.467,306.305 147,307.5C 149.5,306.667 152,305.833 154.5,305C 153.833,304.333 153.167,303.667 152.5,303C 154.247,302.648 155.914,302.148 157.5,301.5 Z"/></g>
<g><path style="opacity:0.327" fill="#172e2b" d="M 337.5,304.5 C 338.582,311.231 335.582,313.731 328.5,312C 327.429,311.148 326.429,310.315 325.5,309.5C 329.538,309.042 333.538,308.376 337.5,307.5C 337.5,306.5 337.5,305.5 337.5,304.5 Z"/></g>
<g><path style="opacity:1" fill="#3f8078" d="M 122.5,286.5 C 124.135,291.925 125.301,297.591 126,303.5C 129.798,313.977 137.131,319.977 148,321.5C 146.872,331.479 145.872,341.479 145,351.5C 147.388,356.74 150.888,357.74 155.5,354.5C 156.5,354.833 157.167,355.5 157.5,356.5C 156.833,357.5 156.167,358.5 155.5,359.5C 152.833,359.5 150.167,359.5 147.5,359.5C 143.43,357.046 141.097,353.379 140.5,348.5C 142.166,339.835 143.833,331.168 145.5,322.5C 134.235,322.096 126.735,316.429 123,305.5C 121.559,299.581 120.726,293.581 120.5,287.5C 120.409,285.302 121.075,284.969 122.5,286.5 Z"/></g>
<g><path style="opacity:1" fill="#3f8077" d="M 356.5,285.5 C 357.791,285.263 358.791,285.596 359.5,286.5C 358.878,296.007 356.378,305.007 352,313.5C 347.43,319.928 341.264,322.928 333.5,322.5C 335.167,331.168 336.834,339.835 338.5,348.5C 337.903,353.379 335.57,357.046 331.5,359.5C 328.833,359.5 326.167,359.5 323.5,359.5C 323.5,359.167 323.5,358.833 323.5,358.5C 323.5,357.167 324.167,356.5 325.5,356.5C 329.683,357.154 332.516,355.488 334,351.5C 333.128,341.479 332.128,331.479 331,321.5C 341.869,319.977 349.202,313.977 353,303.5C 353.77,297.369 354.936,291.369 356.5,285.5 Z"/></g>
<g><path style="opacity:1" fill="#3d7971" d="M 188.5,308.5 C 184.366,310.242 180.2,311.909 176,313.5C 171.416,328.651 165.25,342.984 157.5,356.5C 157.167,355.5 156.5,354.833 155.5,354.5C 162.002,340.505 167.836,326.172 173,311.5C 173.816,310.177 174.983,309.511 176.5,309.5C 180.449,309.018 184.283,308.018 188,306.5C 189.684,306.683 189.85,307.35 188.5,308.5 Z"/></g>
<g><path style="opacity:1" fill="#3d7a72" d="M 307.5,317.5 C 312.072,328.025 316.572,338.692 321,349.5C 322.511,351.862 324.011,354.195 325.5,356.5C 324.167,356.5 323.5,357.167 323.5,358.5C 320.81,355.961 318.643,352.961 317,349.5C 312.47,339.738 308.636,329.738 305.5,319.5C 305.833,318.5 306.5,317.833 307.5,317.5 Z"/></g>
</svg>
